<?xml version="1.0" standalone="no"?>
<!DOCTYPE svg PUBLIC "-//W3C//DTD SVG 20010904//EN"
 "http://www.w3.org/TR/2001/REC-SVG-20010904/DTD/svg10.dtd">
<svg version="1.0" xmlns="http://www.w3.org/2000/svg"
 width="200.000000pt" height="200.000000pt" viewBox="0 0 200.000000 200.000000"
 preserveAspectRatio="xMidYMid meet">
<metadata>
Created by potrace 1.11, written by Peter Selinger 2001-2013
</metadata>
<g transform="translate(0.000000,200.000000) scale(0.100000,-0.100000)"
fill="#000000" stroke="none">
<path d="M267 1886 c-55 -20 -103 -61 -134 -114 l-28 -47 0 -725 c0 -724 0
-725 22 -765 25 -47 64 -85 113 -111 33 -18 75 -19 745 -22 641 -2 714 -1 754
14 55 21 106 66 134 118 l22 41 0 725 c0 688 -1 727 -19 760 -26 49 -64 88
-111 113 -40 22 -44 22 -750 24 -576 2 -717 0 -748 -11z m758 -271 l0 -140
-25 0 -25 0 -3 129 c-1 72 0 136 3 144 3 7 15 12 27 10 23 -3 23 -5 23 -143z
m-101 49 c26 -10 18 -40 -17 -64 -102 -70 -115 -204 -28 -283 70 -63 151 -72
222 -24 109 74 114 214 10 298 -29 22 -41 40 -39 53 11 80 158 -55 174 -159
14 -98 -36 -201 -123 -252 -63 -37 -165 -39 -228 -6 -168 89 -179 328 -20 424
35 22 29 21 49 13z m-264 -749 l0 -195 -25 0 -25 0 0 195 0 195 25 0 25 0 0
-195z m302 88 l3 -108 27 58 c22 47 31 57 52 57 l25 0 -30 -66 -29 -67 30 -65
c35 -76 37 -92 9 -92 -15 0 -28 17 -54 73 l-34 72 0 -72 c-1 -71 -2 -73 -26
-73 l-25 0 0 195 0 195 25 0 c24 0 24 -1 27 -107z m-447 55 c16 -73 55 -296
55 -315 0 -18 -6 -23 -24 -23 -19 0 -25 7 -30 36 -7 32 -10 35 -39 32 -27 -2
-33 -8 -37 -33 -4 -24 -10 -30 -30 -30 -21 0 -24 4 -22 25 5 40 53 304 57 318
2 6 18 12 34 12 24 0 32 -5 36 -22z m319 -59 c23 -18 26 -28 26 -80 l0 -59
-50 0 c-49 0 -50 -1 -50 -31 0 -34 15 -69 31 -69 5 0 15 11 21 25 14 31 48 34
48 4 0 -34 -18 -57 -50 -64 -73 -16 -100 24 -100 150 0 82 1 88 29 116 35 34
59 36 95 8z m383 -1 c7 -6 13 -26 13 -44 0 -27 -4 -34 -20 -34 -13 0 -20 7
-20 19 0 29 -24 45 -40 26 -10 -12 -9 -19 4 -37 9 -13 32 -45 51 -72 41 -57
43 -78 10 -111 -53 -54 -145 -8 -119 59 10 27 42 19 46 -11 3 -31 34 -44 44
-19 4 10 -9 36 -34 69 -52 66 -64 99 -52 132 16 42 80 54 117 23z m167 11 c31
-15 50 -68 42 -115 -7 -33 -9 -34 -52 -34 -51 0 -59 -11 -46 -61 10 -39 32
-44 47 -11 15 33 45 29 45 -7 0 -49 -61 -77 -110 -51 -26 14 -40 63 -40 144 0
79 14 115 50 133 31 16 33 16 64 2z m119 -12 c3 -8 11 -48 18 -90 7 -43 16
-77 20 -77 3 0 10 28 13 63 13 108 16 117 42 117 31 0 31 -2 -10 -189 -35
-164 -52 -196 -100 -189 -29 4 -31 31 -4 43 33 15 33 46 -1 193 -17 71 -31
132 -31 136 0 12 48 6 53 -7z m-602 -409 l1 -103 26 57 c23 49 31 57 54 58
l28 0 -32 -65 -32 -64 32 -73 c18 -40 32 -76 32 -80 0 -5 -11 -8 -24 -8 -20 0
-29 11 -55 73 l-30 72 -1 -72 c0 -71 -1 -73 -25 -73 l-25 0 0 190 0 190 25 0
c25 0 25 0 26 -102z m197 51 c-4 -34 -2 -49 6 -46 46 17 56 17 75 -2 19 -19
21 -33 21 -151 l0 -130 -25 0 -25 0 0 119 c0 84 -4 122 -13 129 -28 23 -36 -3
-39 -123 l-3 -120 -27 -3 -28 -3 0 190 0 191 31 0 32 0 -5 -51z m-554 21 c35
-13 49 -46 49 -114 -1 -68 -23 -106 -71 -120 -29 -8 -31 -12 -34 -60 -3 -47
-5 -51 -30 -54 l-28 -3 0 180 0 181 44 0 c25 0 56 -4 70 -10z m838 -81 c36
-42 36 -190 0 -239 -24 -32 -70 -38 -103 -11 -22 17 -24 28 -28 111 -4 104 8
144 48 159 33 12 61 5 83 -20z m-692 -98 c0 -121 7 -144 35 -121 12 10 15 39
15 126 l0 114 25 0 25 0 0 -145 c0 -138 -1 -145 -20 -145 -11 0 -20 7 -20 16
0 14 -2 14 -22 0 -32 -22 -64 -20 -82 6 -12 17 -16 50 -16 145 l0 123 30 0 30
0 0 -119z m811 19 c16 -102 18 -101 40 28 11 65 14 72 36 72 29 0 29 -3 -2
-137 -14 -59 -27 -118 -30 -130 -5 -23 -38 -32 -49 -15 -3 5 -16 60 -30 123
-14 63 -28 124 -31 137 -5 21 -2 23 22 20 27 -3 28 -6 44 -98z"/>
<path d="M464 905 l-10 -75 24 0 c24 0 24 1 17 68 -4 37 -10 71 -14 75 -4 4
-12 -26 -17 -68z"/>
<path d="M770 960 c-17 -32 -9 -64 18 -68 22 -3 23 0 20 39 -3 48 -21 61 -38
29z"/>
<path d="M1334 967 c-2 -7 -6 -27 -7 -43 -2 -25 2 -29 23 -29 18 0 26 6 28 22
6 41 -31 83 -44 50z"/>
<path d="M490 545 c0 -72 2 -83 15 -79 23 9 35 38 35 84 0 48 -14 80 -35 80
-12 0 -15 -17 -15 -85z"/>
<path d="M1310 550 c-15 -28 -13 -163 3 -185 26 -35 37 -7 37 95 0 77 -3 99
-15 104 -8 3 -19 -3 -25 -14z"/>
</g>
</svg>
